<svg width="660" height="660" viewBox="182 170 660 660" fill="none" xmlns="http://www.w3.org/2000/svg">
  <circle cx="512" cy="561" r="256" fill="#EC2D01"/>
  <path d="M655.625 309.463C650.649 327.333 642.749 348.646 624.065 364.209C547.764 427.761 447.364 405.624 402.869 364.208C385.242 347.615 376.428 327.333 371.453 309.462C363.208 279.961 366.762 255.567 366.762 255.567C366.762 255.567 396.331 251.313 429.453 263.084C440.684 267.055 452.34 272.87 463.429 281.239C469.683 237.698 498.826 208.622 509.487 199.262L513.468 196L517.448 199.262C528.111 208.623 557.254 237.698 563.508 281.239C574.595 272.871 586.253 267.057 597.483 263.084C630.606 251.313 660.174 255.567 660.174 255.567C660.174 255.567 663.871 279.962 655.625 309.463Z" fill="#3BB210" stroke="black" stroke-width="25" stroke-miterlimit="10" stroke-linejoin="round"/>
  <path d="M680.075 368C830.47 499.37 773.334 808 512.5 808C251.666 808 194.53 499.37 344.925 368" stroke="black" stroke-width="25" stroke-linecap="round"/>
</svg>
